<svg xmlns="http://www.w3.org/2000/svg" viewBox="259.621094 123.871094 93.47265599999997 65.390625" fill="none" stroke="#5D80B8" stroke-width="0.5" stroke-linejoin="round">
<path d="M 17.28125 1.167969 L 34.4375 6.628906 L 34.4375 24.566406 C 34.4375 37.824219 27.417969 45.625 17.28125 51.082031 C 7.140625 45.625 0.121094 37.824219 0.121094 24.566406 L 0.121094 6.628906 Z M 17.28125 1.167969 " transform="translate(261 132)"/>
<path d="M 17.433594 1.167969 L 34.59375 6.628906 L 34.59375 24.566406 C 34.59375 37.824219 27.574219 45.625 17.433594 51.082031 C 7.296875 45.625 0.277344 37.824219 0.277344 24.566406 L 0.277344 6.628906 Z M 17.433594 1.167969 " transform="translate(317 132)"/>
<path d="M 306.355469 125.371094 L 326.636719 131.609375 L 326.636719 155.007812 C 326.636719 171.382812 318.054688 181.523438 306.355469 187.761719 C 294.660156 181.523438 286.078125 171.382812 286.078125 155.007812 L 286.078125 131.609375 Z M 306.355469 125.371094 "/>
</svg>
